<?xml version="1.0" standalone="no"?>
<!DOCTYPE svg PUBLIC "-//W3C//DTD SVG 20010904//EN"
 "http://www.w3.org/TR/2001/REC-SVG-20010904/DTD/svg10.dtd">
<svg version="1.0" xmlns="http://www.w3.org/2000/svg"
 width="147.000000pt" height="131.000000pt" viewBox="0 0 147.000000 131.000000"
 preserveAspectRatio="xMidYMid meet">

<g transform="translate(0.000000,131.000000) scale(0.100000,-0.100000)"
fill="#000000" stroke="none">
<path d="M861 1065 c-23 -25 -62 -76 -86 -114 -25 -39 -67 -87 -93 -107 -68
-54 -67 -54 -56 -54 6 0 29 16 51 35 23 19 43 35 45 35 3 0 3 -13 0 -28 -5
-40 19 -58 61 -44 l32 10 -37 1 c-29 1 -38 5 -38 18 0 33 54 124 111 189 83
94 92 148 10 59z"/>
<path d="M290 1062 c-31 -9 -80 -73 -80 -103 0 -30 39 -76 98 -116 12 -8 22
-23 22 -33 0 -33 -110 -55 -139 -27 -11 10 -12 8 -3 -8 8 -17 19 -20 65 -18
69 2 97 16 97 49 0 25 -13 41 -83 101 -56 47 -46 96 29 139 21 13 17 24 -6 16z"/>
<path d="M346 1051 c21 -21 29 -19 21 4 -4 8 -14 15 -23 15 -16 0 -16 -2 2
-19z"/>
<path d="M975 950 c-3 -5 3 -10 15 -10 31 0 20 -21 -23 -45 -40 -22 -59 -15
-34 13 28 31 19 34 -18 7 -93 -72 -28 -146 96 -109 30 9 69 25 87 36 37 23 88
18 78 -7 -6 -16 3 -19 28 -9 25 10 19 24 -14 36 -26 9 -29 12 -18 26 12 15 11
15 -10 0 -26 -17 -62 -13 -62 7 0 7 14 19 30 27 31 13 40 28 18 28 -20 0 -78
-38 -78 -51 0 -7 7 -17 17 -24 24 -17 9 -32 -49 -50 -64 -19 -108 -19 -133 -1
-29 21 -12 46 33 46 46 0 109 46 99 73 -7 18 -52 23 -62 7z"/>
<path d="M1193 953 c9 -2 23 -2 30 0 6 3 -1 5 -18 5 -16 0 -22 -2 -12 -5z"/>
<path d="M525 904 c-40 -21 -64 -43 -81 -76 -19 -37 -18 -48 6 -48 24 0 70 28
70 43 0 5 -9 2 -19 -7 -11 -10 -28 -16 -38 -14 -27 6 68 98 102 98 14 0 25 5
25 10 0 15 -31 12 -65 -6z"/>
<path d="M568 858 c-28 -10 -38 -28 -17 -28 7 0 9 -10 5 -24 -7 -30 5 -39 36
-27 l23 10 -22 0 c-27 1 -28 11 -8 51 9 17 14 30 13 29 -2 0 -15 -5 -30 -11z"/>
<path d="M1118 833 c-27 -7 -22 -23 7 -23 18 0 23 4 19 15 -4 8 -7 14 -8 14 0
-1 -9 -3 -18 -6z"/>
<path d="M290 581 c-30 -3 -48 -9 -40 -12 24 -9 194 -11 226 -2 27 7 26 8 -21
14 -57 8 -87 8 -165 0z"/>
<path d="M336 502 c-18 -21 -70 -168 -81 -230 -3 -23 -2 -48 3 -58 7 -12 10
-3 15 37 5 51 52 202 76 248 14 26 9 27 -13 3z"/>
<path d="M975 490 c-3 -5 -1 -10 4 -10 6 0 11 5 11 10 0 6 -2 10 -4 10 -3 0
-8 -4 -11 -10z"/>
<path d="M1236 469 c-16 -5 -46 -22 -67 -39 -21 -16 -40 -30 -43 -30 -3 0 -3
13 0 30 10 48 -16 47 -95 -6 -39 -26 -74 -44 -77 -41 -3 3 1 20 10 38 19 38
20 42 5 33 -6 -3 -18 -22 -26 -42 -24 -57 -4 -61 75 -13 66 40 100 52 87 30
-9 -14 3 -59 16 -59 6 0 34 20 61 45 28 25 54 45 58 45 5 0 6 -25 3 -55 -5
-49 -4 -55 13 -55 14 0 16 3 6 9 -10 6 -11 17 -2 54 15 58 12 66 -24 56z"/>
<path d="M555 440 c-21 -23 -14 -26 15 -7 17 10 22 9 29 -2 6 -9 11 -10 15 -2
20 32 -31 42 -59 11z"/>
<path d="M731 424 c-33 -41 -48 -101 -30 -119 9 -10 19 -11 29 -5 13 8 12 10
-2 10 -10 0 -18 8 -18 17 0 10 8 37 18 61 13 34 21 42 39 40 12 -2 23 2 25 7
7 23 -41 15 -61 -11z"/>
<path d="M823 417 c-11 -12 -30 -38 -43 -57 l-23 -35 34 33 c19 17 40 32 46
32 13 0 24 38 14 45 -5 2 -17 -6 -28 -18z"/>
<path d="M530 393 c0 -5 -9 -20 -20 -33 -26 -30 -25 -65 2 -84 24 -17 113 -22
122 -7 4 5 -11 7 -33 4 -21 -3 -48 0 -60 6 -21 11 -20 12 14 43 33 28 62 68
51 68 -3 0 -21 -14 -41 -31 -40 -35 -54 -32 -36 7 6 15 9 29 6 32 -3 3 -5 1
-5 -5z"/>
<path d="M825 358 c-15 -36 24 -74 48 -48 8 9 8 11 1 7 -14 -8 -30 10 -36 38
-5 18 -6 18 -13 3z"/>
</g>
</svg>
